<svg width="21" height="21" viewBox="0 0 21 21" fill="none" xmlns="http://www.w3.org/2000/svg">
<path d="M1.75 10.5C1.75 7.20017 1.75 5.55025 2.77513 4.52513C3.80025 3.5 5.45017 3.5 8.75 3.5H10.0625C13.3623 3.5 15.0122 3.5 16.0374 4.52513C17.0625 5.55025 17.0625 7.20017 17.0625 10.5C17.0625 13.7998 17.0625 15.4497 16.0374 16.4749C15.0122 17.5 13.3623 17.5 10.0625 17.5H8.75C5.45017 17.5 3.80025 17.5 2.77513 16.4749C1.75 15.4497 1.75 13.7998 1.75 10.5Z" stroke="#121212" stroke-width="1.5"/>
<path d="M6.125 7.875C6.125 7.875 6.5625 8.6625 6.5625 10.5C6.5625 12.3375 6.125 13.125 6.125 13.125" stroke="#121212" stroke-width="1.5" stroke-linecap="round"/>
<path d="M9.1875 7.875C9.1875 7.875 9.625 8.6625 9.625 10.5C9.625 12.3375 9.1875 13.125 9.1875 13.125" stroke="#121212" stroke-width="1.5" stroke-linecap="round"/>
<path d="M17.5 8.75C18.325 8.75 18.7374 8.75 18.9937 9.00628C19.25 9.26256 19.25 9.67504 19.25 10.5C19.25 11.325 19.25 11.7374 18.9937 11.9937C18.7374 12.25 18.325 12.25 17.5 12.25V8.75Z" stroke="#121212" stroke-width="1.5"/>
</svg>
