<svg width="48" height="48" viewBox="0 0 48 48" fill="none" xmlns="http://www.w3.org/2000/svg">
<path d="M4 24C4 16.4575 4 12.6863 6.34315 10.3431C8.68629 8 12.4575 8 20 8H23C30.5425 8 34.3137 8 36.6569 10.3431C39 12.6863 39 16.4575 39 24C39 31.5425 39 35.3137 36.6569 37.6569C34.3137 40 30.5425 40 23 40H20C12.4575 40 8.68629 40 6.34315 37.6569C4 35.3137 4 31.5425 4 24Z" stroke="white" stroke-width="3"/>
<path d="M14 18C14 18 15 19.8 15 24C15 28.2 14 30 14 30" stroke="white" stroke-width="3" stroke-linecap="round"/>
<path d="M40 20C41.8856 20 42.8284 20 43.4142 20.5858C44 21.1716 44 22.1144 44 24C44 25.8856 44 26.8284 43.4142 27.4142C42.8284 28 41.8856 28 40 28V20Z" stroke="white" stroke-width="3"/>
</svg>
