<svg width="20" height="20" viewBox="0 0 20 20" fill="none" xmlns="http://www.w3.org/2000/svg">
<path fill-rule="evenodd" clip-rule="evenodd" d="M18.5355 18.5355C20 17.0711 20 14.714 20 10C20 9.65854 20 9.48781 19.9848 9.31421C19.9142 8.50489 19.586 7.71257 19.0637 7.09034C18.9516 6.95687 18.828 6.83317 18.5806 6.58578L13.4142 1.41944C13.1668 1.17206 13.0431 1.04835 12.9097 0.936312C12.2874 0.413997 11.4951 0.0858056 10.6858 0.0151549C10.5122 0 10.3415 0 10 0C5.28595 0 2.92893 0 1.46447 1.46447C0 2.92893 0 5.28595 0 10C0 14.714 0 17.0711 1.46447 18.5355C2.1485 19.2196 3.02727 19.5841 4.25 19.7784L4.25 18.948C4.24997 18.0495 4.24995 17.3003 4.32991 16.7055C4.41432 16.0777 4.59999 15.5109 5.05546 15.0555C5.51093 14.6 6.07773 14.4143 6.70552 14.3299C7.3003 14.2499 8.04952 14.25 8.948 14.25H11.052C11.9505 14.25 12.6997 14.2499 13.2945 14.3299C13.9223 14.4143 14.4891 14.6 14.9445 15.0555C15.4 15.5109 15.5857 16.0777 15.6701 16.7055C15.7501 17.3003 15.75 18.0495 15.75 18.948L15.75 19.7784C16.9727 19.5841 17.8515 19.2196 18.5355 18.5355ZM4.25 6C4.25 5.58579 4.58579 5.25 5 5.25H11C11.4142 5.25 11.75 5.58579 11.75 6C11.75 6.41421 11.4142 6.75 11 6.75H5C4.58579 6.75 4.25 6.41421 4.25 6Z" fill="#C4151C"/>
<path d="M14.1835 16.9054C14.2484 17.3884 14.25 18.036 14.25 19V19.9313C13.0942 20 11.7004 20 10 20C8.29955 20 6.9058 20 5.75 19.9313V19C5.75 18.036 5.75159 17.3884 5.81654 16.9054C5.87858 16.4439 5.9858 16.2464 6.11612 16.1161C6.24643 15.9858 6.44393 15.8786 6.90539 15.8165C7.38843 15.7516 8.03599 15.75 9 15.75H11C11.964 15.75 12.6116 15.7516 13.0946 15.8165C13.5561 15.8786 13.7536 15.9858 13.8839 16.1161C14.0142 16.2464 14.1214 16.4439 14.1835 16.9054Z" fill="#C4151C"/>
</svg>
