<svg width="48" height="48" viewBox="0 0 48 48" fill="none" xmlns="http://www.w3.org/2000/svg">
<path d="M18.3622 20.3622C18.4684 20.256 18.6581 20.1246 19.2633 20.0432C19.9087 19.9565 20.7845 19.9535 22.1395 19.9535H25.8605C27.2155 19.9535 28.0913 19.9565 28.7367 20.0432C29.3419 20.1246 29.5316 20.256 29.6378 20.3622C29.7441 20.4684 29.8754 20.6581 29.9568 21.2633C30.0436 21.9087 30.0465 22.7845 30.0465 24.1395V27.8605C30.0465 29.2155 30.0436 30.0913 29.9568 30.7367C29.8754 31.3419 29.7441 31.5316 29.6378 31.6378C29.5316 31.7441 29.3419 31.8754 28.7367 31.9568C28.0913 32.0436 27.2155 32.0465 25.8605 32.0465H22.1395C20.7845 32.0465 19.9087 32.0436 19.2633 31.9568C18.6581 31.8754 18.4684 31.7441 18.3622 31.6378C18.256 31.5316 18.1246 31.3419 18.0432 30.7367C17.9565 30.0913 17.9535 29.2155 17.9535 27.8605V24.1395C17.9535 22.7845 17.9565 21.9087 18.0432 21.2633C18.1246 20.6581 18.256 20.4684 18.3622 20.3622Z" fill="white"/>
<path fill-rule="evenodd" clip-rule="evenodd" d="M24 6C24.7706 6 25.3953 6.62472 25.3953 7.39535V12.9777C26.4168 12.9798 27.3435 12.9868 28.1864 13.0099L28.186 12.9767V7.39535C28.186 6.62472 28.8108 6 29.5814 6C30.352 6 30.9767 6.62472 30.9767 7.39535V12.9767C30.9767 13.0497 30.9711 13.1214 30.9603 13.1914C32.8324 13.4213 34.1297 13.8976 35.116 14.884C36.1024 15.8703 36.5787 17.1676 36.8086 19.0397C36.8786 19.0289 36.9503 19.0233 37.0233 19.0233H42.6047C43.3753 19.0233 44 19.648 44 20.4186C44 21.1892 43.3753 21.814 42.6047 21.814H37.0233L36.9901 21.8136C37.0132 22.6565 37.0211 23.5832 37.0233 24.6047H42.6047C43.3753 24.6047 44 25.2294 44 26C44 26.7706 43.3753 27.3953 42.6047 27.3953L37.0223 27.3953C37.0202 28.4168 37.0132 29.3435 36.9901 30.1864L37.0233 30.186H42.6047C43.3753 30.186 44 30.8108 44 31.5814C44 32.352 43.3753 32.9767 42.6047 32.9767H37.0233C36.9503 32.9767 36.8786 32.9711 36.8086 32.9603C36.5787 34.8324 36.1024 36.1297 35.116 37.116C34.1297 38.1024 32.8324 38.5787 30.9603 38.8086C30.9711 38.8786 30.9767 38.9503 30.9767 39.0233V44.6047C30.9767 45.3753 30.352 46 29.5814 46C28.8108 46 28.186 45.3753 28.186 44.6047V39.0233L28.1864 38.9901C27.3435 39.0132 26.4168 39.0211 25.3953 39.0233V44.6047C25.3953 45.3753 24.7706 46 24 46C23.2294 46 22.6047 45.3753 22.6047 44.6047L22.6047 39.0223C21.5832 39.0202 20.6565 39.0132 19.8136 38.9901L19.814 39.0233V44.6047C19.814 45.3753 19.1892 46 18.4186 46C17.648 46 17.0233 45.3753 17.0233 44.6047V39.0233C17.0233 38.9503 17.0289 38.8786 17.0397 38.8086C15.1676 38.5787 13.8703 38.1024 12.884 37.116C11.8976 36.1297 11.4213 34.8324 11.1914 32.9603C11.1214 32.9711 11.0497 32.9767 10.9767 32.9767H5.39535C4.62472 32.9767 4 32.352 4 31.5814C4 30.8108 4.62472 30.186 5.39535 30.186H10.9767L11.0099 30.1864C10.9868 29.3435 10.9789 28.4168 10.9767 27.3953H5.39535C4.62472 27.3953 4 26.7706 4 26C4 25.2294 4.62472 24.6047 5.39535 24.6047L10.9777 24.6047C10.9798 23.5832 10.9868 22.6565 11.0099 21.8136L10.9767 21.814H5.39535C4.62472 21.814 4 21.1892 4 20.4186C4 19.648 4.62472 19.0233 5.39535 19.0233H10.9767C11.0497 19.0233 11.1214 19.0289 11.1914 19.0397C11.4213 17.1676 11.8976 15.8703 12.884 14.884C13.8703 13.8976 15.1676 13.4213 17.0397 13.1914C17.0289 13.1214 17.0233 13.0497 17.0233 12.9767V7.39535C17.0233 6.62472 17.648 6 18.4186 6C19.1892 6 19.814 6.62472 19.814 7.39535V12.9767L19.8136 13.0099C20.6565 12.9868 21.5832 12.9789 22.6047 12.9767V7.39535C22.6047 6.62472 23.2294 6 24 6ZM22.0477 17.1628C20.8107 17.1627 19.7449 17.1627 18.8915 17.2774C17.9768 17.4004 17.1 17.6777 16.3889 18.3889C15.6777 19.1 15.4004 19.9768 15.2774 20.8915C15.1627 21.7449 15.1627 22.8107 15.1628 24.0477V27.9523C15.1627 29.1893 15.1627 30.2551 15.2774 31.1086C15.4004 32.0232 15.6777 32.9 16.3889 33.6112C17.1 34.3223 17.9768 34.5996 18.8915 34.7226C19.7449 34.8374 20.8107 34.8373 22.0477 34.8372H25.9523C27.1893 34.8373 28.2551 34.8374 29.1086 34.7226C30.0232 34.5996 30.9 34.3223 31.6112 33.6112C32.3223 32.9 32.5996 32.0232 32.7226 31.1086C32.8374 30.2551 32.8373 29.1893 32.8372 27.9523V24.0477C32.8373 22.8107 32.8374 21.7449 32.7226 20.8915C32.5996 19.9768 32.3223 19.1 31.6112 18.3889C30.9 17.6777 30.0232 17.4004 29.1086 17.2774C28.2551 17.1627 27.1893 17.1627 25.9524 17.1628H22.0477Z" fill="white"/>
</svg>
