<svg width="22" height="23" viewBox="0 0 22 23" fill="none" xmlns="http://www.w3.org/2000/svg">
<path d="M13.748 6.91659C13.7369 4.92281 13.6485 3.84306 12.9442 3.13871C12.1387 2.33325 10.8424 2.33325 8.24964 2.33325L7.33297 2.33325C4.74025 2.33325 3.44389 2.33325 2.63843 3.13871C1.83297 3.94416 1.83297 5.24053 1.83297 7.83325L1.83297 15.1666C1.83297 17.7593 1.83297 19.0557 2.63843 19.8611C3.44389 20.6666 4.74025 20.6666 7.33297 20.6666H8.24964C10.8424 20.6666 12.1387 20.6666 12.9442 19.8611C13.6485 19.1568 13.7369 18.077 13.748 16.0833" stroke="#C4151C" stroke-width="1.5" stroke-linecap="round"/>
<path d="M8.25 11.5L20.1667 11.5M20.1667 11.5L16.9583 8.75M20.1667 11.5L16.9583 14.25" stroke="#C4151C" stroke-width="1.5" stroke-linecap="round" stroke-linejoin="round"/>
</svg>
