<svg width="22" height="22" viewBox="0 0 22 22" fill="none" xmlns="http://www.w3.org/2000/svg">
<path d="M11.6875 2.0625C11.6875 0.923413 12.6109 0 13.75 0H19.25C20.7688 0 22 1.23122 22 2.75V19.25C22 20.7688 20.7688 22 19.25 22H2.75C1.23122 22 0 20.7688 0 19.25V2.75C0 1.23122 1.23122 0 2.75 0H10.9997C10.5682 0.574517 10.3125 1.28865 10.3125 2.0625V10.3125H7.5625C7.28443 10.3125 7.03374 10.48 6.92733 10.7369C6.82092 10.9938 6.87974 11.2895 7.07636 11.4861L10.5139 14.9236C10.7823 15.1921 11.2176 15.1921 11.4861 14.9236L14.9236 11.4861C15.1203 11.2895 15.1791 10.9938 15.0727 10.7369C14.9663 10.48 14.7156 10.3125 14.4375 10.3125H11.6875V2.0625Z" fill="#C4151C"/>
</svg>
