<svg width="19" height="20" viewBox="0 0 19 20" fill="none" xmlns="http://www.w3.org/2000/svg">
<path fill-rule="evenodd" clip-rule="evenodd" d="M11.0889 0.972806C10.7494 0.833252 10.3191 0.833252 9.45833 0.833252C8.5976 0.833252 8.16724 0.833252 7.82776 0.972806C7.37512 1.15888 7.0155 1.51578 6.82801 1.965C6.74242 2.17006 6.70893 2.40854 6.69582 2.75641C6.67656 3.26763 6.41239 3.74082 5.96598 3.9966C5.51958 4.25239 4.97458 4.24283 4.51886 4.00378C4.20875 3.84111 3.9839 3.75066 3.76216 3.72168C3.27642 3.65822 2.78517 3.78885 2.39648 4.08485C2.10496 4.30685 1.88978 4.67674 1.45941 5.41652C1.02905 6.1563 0.813863 6.52619 0.765901 6.88775C0.701953 7.36982 0.833583 7.85736 1.13183 8.24311C1.26797 8.41918 1.45929 8.56719 1.75623 8.75236C2.19275 9.02457 2.47363 9.48829 2.4736 9.99994C2.47357 10.5115 2.19271 10.9752 1.75623 11.2474C1.45924 11.4326 1.26789 11.5806 1.13174 11.7567C0.833492 12.1424 0.701862 12.63 0.765811 13.112C0.813773 13.4736 1.02896 13.8435 1.45932 14.5833C1.88969 15.323 2.10487 15.6929 2.39639 15.9149C2.78508 16.2109 3.27633 16.3416 3.76207 16.2781C3.98379 16.2491 4.20863 16.1587 4.51872 15.996C4.97448 15.757 5.51951 15.7474 5.96594 16.0032C6.41238 16.259 6.67656 16.7322 6.69582 17.2435C6.70893 17.5913 6.74243 17.8298 6.82801 18.0348C7.0155 18.4841 7.37512 18.841 7.82776 19.027C8.16724 19.1666 8.5976 19.1666 9.45833 19.1666C10.3191 19.1666 10.7494 19.1666 11.0889 19.027C11.5415 18.841 11.9012 18.4841 12.0887 18.0348C12.1742 17.8298 12.2077 17.5913 12.2208 17.2434C12.2401 16.7322 12.5042 16.259 12.9506 16.0032C13.3971 15.7474 13.9421 15.7569 14.3979 15.996C14.708 16.1586 14.9328 16.2491 15.1545 16.278C15.6402 16.3415 16.1315 16.2109 16.5202 15.9149C16.8117 15.6929 17.0269 15.323 17.4573 14.5832C17.8876 13.8434 18.1028 13.4735 18.1508 13.112C18.2147 12.6299 18.0831 12.1424 17.7848 11.7566C17.6487 11.5805 17.4574 11.4325 17.1604 11.2473C16.7239 10.9751 16.443 10.5114 16.4431 9.99984C16.4431 9.48828 16.7239 9.02466 17.1604 8.75251C17.4574 8.5673 17.6488 8.41927 17.7849 8.24317C18.0832 7.85742 18.2148 7.36988 18.1509 6.88781C18.1029 6.52626 17.8877 6.15637 17.4573 5.41659C17.027 4.6768 16.8118 4.30691 16.5203 4.08491C16.1316 3.78892 15.6403 3.65828 15.1546 3.72175C14.9329 3.75072 14.708 3.84116 14.3979 4.00382C13.9422 4.24288 13.3972 4.25244 12.9507 3.99663C12.5043 3.74083 12.2401 3.26761 12.2208 2.75636C12.2077 2.40852 12.1742 2.17005 12.0887 1.965C11.9012 1.51578 11.5415 1.15888 11.0889 0.972806ZM9.45833 12.7499C10.9887 12.7499 12.2293 11.5187 12.2293 9.99992C12.2293 8.48114 10.9887 7.24992 9.45833 7.24992C7.92799 7.24992 6.68739 8.48114 6.68739 9.99992C6.68739 11.5187 7.92799 12.7499 9.45833 12.7499Z" fill="#C4151C"/>
</svg>
