<svg width="19" height="19" viewBox="0 0 19 19" fill="none" xmlns="http://www.w3.org/2000/svg">
<g clip-path="url(#clip0_11_9921)">
<path d="M17.4163 9.49998C17.4163 13.8722 13.8719 17.4166 9.49967 17.4166C5.12742 17.4166 1.58301 13.8722 1.58301 9.49998C1.58301 5.12773 5.12742 1.58331 9.49967 1.58331C13.8719 1.58331 17.4163 5.12773 17.4163 9.49998Z" stroke="#C4151C" stroke-width="1.5"/>
<path d="M15.042 15.0417L13.8545 13.8542" stroke="#C4151C" stroke-width="1.5" stroke-linecap="round"/>
<path d="M15.042 3.95831L13.8545 5.14581" stroke="#C4151C" stroke-width="1.5" stroke-linecap="round"/>
<path d="M3.95801 15.0417L5.14551 13.8542" stroke="#C4151C" stroke-width="1.5" stroke-linecap="round"/>
<path d="M3.95801 3.95831L5.14551 5.14581" stroke="#C4151C" stroke-width="1.5" stroke-linecap="round"/>
<path d="M1.58301 9.5H3.16634" stroke="#C4151C" stroke-width="1.5" stroke-linecap="round"/>
<path d="M15.8328 9.5L17.4162 9.5" stroke="#C4151C" stroke-width="1.5" stroke-linecap="round"/>
<path d="M9.5 3.16686L9.5 1.58352" stroke="#C4151C" stroke-width="1.5" stroke-linecap="round"/>
<path d="M8.013 11.3714C7.08551 10.4439 7.08551 8.94013 8.013 8.01264C8.9405 7.08514 10.4443 7.08514 11.3718 8.01264C11.7246 8.36544 11.971 9.09783 12.1409 9.86997C12.3949 11.0246 12.5219 11.602 12.0621 12.0618C11.6023 12.5216 11.025 12.3946 9.87034 12.1405C9.09819 11.9706 8.36581 11.7242 8.013 11.3714Z" stroke="#C4151C" stroke-width="1.5"/>
</g>
<defs>
<clipPath id="clip0_11_9921">
<rect width="19" height="19" fill="white"/>
</clipPath>
</defs>
</svg>
