<svg width="26" height="26" viewBox="0 0 26 26" fill="none" xmlns="http://www.w3.org/2000/svg">
<path d="M16.853 13.4507V12.5509C16.853 11.2084 16.1674 10.5466 15.2486 10.5466C14.3202 10.5466 13.6395 11.2084 13.6395 12.5509V13.4507C13.6395 14.798 14.3202 15.4597 15.2486 15.4597C16.1674 15.4597 16.853 14.798 16.853 13.4507Z" fill="#C4151C"/>
<path d="M21.055 13.0603C21.8072 13.0603 22.2499 12.6176 22.2499 11.8511C22.2499 11.0846 21.8072 10.6466 21.055 10.6466H19.7982V13.0603H21.055Z" fill="#C4151C"/>
<path d="M7.95177 0C7.73628 0 7.52962 0.0856024 7.37725 0.237976L0.237976 7.37725C0.0856024 7.52962 0 7.73628 0 7.95177V18.0482C0 18.2637 0.0856024 18.4704 0.237976 18.6228L7.37725 25.762C7.52962 25.9144 7.73628 26 7.95177 26H18.0482C18.2637 26 18.4704 25.9144 18.6228 25.762L25.762 18.6228C25.9144 18.4704 26 18.2637 26 18.0482V7.95177C26 7.73628 25.9144 7.52962 25.762 7.37725L18.6228 0.237976C18.4704 0.0856024 18.2637 0 18.0482 0H7.95177ZM5.13544 16.3785C3.62153 16.3785 2.78364 15.5787 2.70747 14.5409H3.76911C3.87385 15.1027 4.41181 15.4883 5.21638 15.4883C6.06855 15.4883 6.56367 15.0884 6.56367 14.479C6.56367 13.9886 6.23518 13.722 5.53059 13.5507L4.46418 13.2841C3.47395 13.046 2.87409 12.4557 2.87409 11.5321C2.87409 10.3848 3.84528 9.60876 5.22114 9.60876C6.60651 9.60876 7.47297 10.38 7.5539 11.375H6.50654C6.4018 10.8561 5.93525 10.4943 5.21162 10.4943C4.44514 10.4943 3.95954 10.8942 3.95954 11.4702C3.95954 11.8939 4.27851 12.1796 4.85932 12.3176L5.92097 12.5795C7.01594 12.8461 7.64436 13.3698 7.64436 14.3838C7.64436 15.5787 6.71125 16.3785 5.13544 16.3785ZM10.7038 10.6752V16.25H9.62311V10.6752H7.72357V9.75159H12.6081V10.6752H10.7038ZM17.9479 12.5604V13.4459C17.9479 15.2836 16.9149 16.3785 15.2486 16.3785C13.5823 16.3785 12.5445 15.2836 12.5445 13.4459V12.5604C12.5445 10.7133 13.5823 9.62305 15.2486 9.62305C16.9149 9.62305 17.9479 10.718 17.9479 12.5604ZM18.7222 9.75159H21.2169C22.5499 9.75159 23.3544 10.6466 23.3544 11.8511C23.3544 13.0651 22.5403 13.9458 21.2073 13.9458H19.8029V16.25H18.7222V9.75159Z" fill="#C4151C"/>
</svg>
