<svg width="20" height="20" viewBox="0 0 20 20" fill="none" xmlns="http://www.w3.org/2000/svg">
<path d="M0.833496 13.3143C0.833496 14.091 1.45847 14.7159 2.70842 15.9659L4.03419 17.2917C5.28414 18.5416 5.90911 19.1666 6.68573 19.1666C7.46235 19.1666 8.08733 18.5416 9.33728 17.2917L17.2919 9.33703C18.5419 8.08708 19.1668 7.46211 19.1668 6.68549C19.1668 5.90887 18.5419 5.2839 17.2919 4.03395L15.9661 2.70818C14.7162 1.45823 14.0912 0.833252 13.3146 0.833252C12.6239 0.833252 12.0532 1.32757 11.0561 2.31622C11.0834 2.33641 11.1096 2.35889 11.1343 2.38366L12.4307 3.68002C12.6992 3.9485 12.6992 4.3838 12.4307 4.65229C12.1622 4.92078 11.7269 4.92078 11.4584 4.65229L10.1621 3.35593C10.1371 3.33098 10.1145 3.30459 10.0942 3.27703L9.11091 4.26031C9.13847 4.28062 9.16486 4.30325 9.1898 4.3282L11.1343 6.27274C11.4028 6.54123 11.4028 6.97653 11.1343 7.24501C10.8659 7.5135 10.4306 7.5135 10.1621 7.24501L8.21753 5.30047C8.19258 5.27552 8.16996 5.24914 8.14964 5.22158L7.16637 6.20486C7.19393 6.22517 7.22031 6.2478 7.24526 6.27274L8.54162 7.56911C8.81011 7.83759 8.81011 8.27289 8.54162 8.54138C8.27314 8.80986 7.83783 8.80986 7.56935 8.54138L6.27299 7.24501C6.24804 7.22007 6.22541 7.19368 6.2051 7.16612L5.22182 8.1494C5.24938 8.16971 5.27577 8.19234 5.30071 8.21729L7.24526 10.1618C7.51374 10.4303 7.51374 10.8656 7.24526 11.1341C6.97677 11.4026 6.54147 11.4026 6.27299 11.1341L4.32844 9.18956C4.3035 9.16461 4.28087 9.13822 4.26056 9.11067L3.27728 10.0939C3.30484 10.1143 3.33123 10.1369 3.35617 10.1618L4.65253 11.4582C4.92102 11.7267 4.92102 12.162 4.65253 12.4305C4.38405 12.6989 3.94875 12.6989 3.68026 12.4305L2.3839 11.1341C2.35914 11.1093 2.33666 11.0832 2.31646 11.0558C1.32782 12.0529 0.833496 12.6237 0.833496 13.3143Z" fill="#C4151C"/>
</svg>
