<svg width="20" height="20" viewBox="0 0 20 20" fill="none" xmlns="http://www.w3.org/2000/svg">
<g filter="url(#filter0_i_10_4839)">
<path d="M10.309 0.80388L15.6671 6.32928C16.0014 6.67405 15.7988 7.33317 15.3584 7.33317H4.64224C4.2019 7.33317 3.99924 6.67406 4.33357 6.32928L9.69165 0.80388C9.86927 0.620712 10.1314 0.620712 10.309 0.80388Z" fill="#57E741"/>
</g>
<g filter="url(#filter1_i_10_4839)">
<path d="M10.309 19.1961L15.6671 13.6707C16.0014 13.3259 15.7988 12.6668 15.3584 12.6668H4.64224C4.2019 12.6668 3.99924 13.3259 4.33357 13.6707L9.69165 19.1961C9.86927 19.3793 10.1314 19.3793 10.309 19.1961Z" fill="#214458"/>
</g>
<defs>
<filter id="filter0_i_10_4839" x="4.16699" y="0.666504" width="11.667" height="7.66675" filterUnits="userSpaceOnUse" color-interpolation-filters="sRGB">
<feFlood flood-opacity="0" result="BackgroundImageFix"/>
<feBlend mode="normal" in="SourceGraphic" in2="BackgroundImageFix" result="shape"/>
<feColorMatrix in="SourceAlpha" type="matrix" values="0 0 0 0 0 0 0 0 0 0 0 0 0 0 0 0 0 0 127 0" result="hardAlpha"/>
<feOffset dy="1"/>
<feGaussianBlur stdDeviation="0.5"/>
<feComposite in2="hardAlpha" operator="arithmetic" k2="-1" k3="1"/>
<feColorMatrix type="matrix" values="0 0 0 0 0 0 0 0 0 0 0 0 0 0 0 0 0 0 0.25 0"/>
<feBlend mode="normal" in2="shape" result="effect1_innerShadow_10_4839"/>
</filter>
<filter id="filter1_i_10_4839" x="4.16699" y="12.6667" width="11.667" height="8.66675" filterUnits="userSpaceOnUse" color-interpolation-filters="sRGB">
<feFlood flood-opacity="0" result="BackgroundImageFix"/>
<feBlend mode="normal" in="SourceGraphic" in2="BackgroundImageFix" result="shape"/>
<feColorMatrix in="SourceAlpha" type="matrix" values="0 0 0 0 0 0 0 0 0 0 0 0 0 0 0 0 0 0 127 0" result="hardAlpha"/>
<feOffset dy="2"/>
<feGaussianBlur stdDeviation="1"/>
<feComposite in2="hardAlpha" operator="arithmetic" k2="-1" k3="1"/>
<feColorMatrix type="matrix" values="0 0 0 0 0 0 0 0 0 0 0 0 0 0 0 0 0 0 0.25 0"/>
<feBlend mode="normal" in2="shape" result="effect1_innerShadow_10_4839"/>
</filter>
</defs>
</svg>
