<svg style="width:0; height:0; visibility: hidden"  fill="none" xmlns="http://www.w3.org/2000/svg">
	<symbol id="svg-logo" viewBox="0 0 60 27">
		<g>

			<path d="M42.4659 2.41507V3.39772H50.8074C51.3635 3.39772 52.1977 3.39772 52.7454 3.95972C53.293 4.52172 53.3015 5.36472 53.3015 5.9182V14.3482C53.3015 14.9102 53.3015 15.7532 52.7454 16.3067C52.1893 16.8687 51.3551 16.8687 50.8074 16.8687H46.7799C46.0856 16.8687 45.1807 16.8687 44.842 16.0955C44.4948 15.3223 44.9808 14.6207 45.3981 14.0519L50.8243 6.74587H42.4828L39.1461 11.2419C38.5867 11.9946 38.103 12.6469 38.103 13.4899C38.103 14.3329 38.553 14.9391 39.1461 15.7379L39.9803 16.8619C40.8144 17.9859 41.6486 19.1099 42.7608 19.6719C43.873 20.2339 45.1874 20.2339 47.0074 20.2339H50.6136C52.7032 20.2339 55.8208 20.2339 57.9104 18.1221C60 16.0104 60 12.9279 60 11.8039V8.43187C60 7.30788 60 4.22539 57.9104 2.11364C55.8208 0.00187896 52.7032 0.00187896 50.6136 0.00187896L44.8504 5.63251e-06C44.2943 -0.00016467 43.6 5.64387e-06 43.0473 0.562005C42.4912 1.124 42.4912 1.82565 42.4912 2.38425" fill="#C4151C"/>
			<path d="M32.5235 6.7749H40.7807L30.8383 20.297H22.5811L32.5235 6.7749Z" fill="#C4151C"/>
			<path d="M0 9.15914C0 8.59714 0 7.8955 0.556102 7.3369C1.1122 6.77831 1.80649 6.7749 2.35922 6.7749H16.3292C18.1323 6.7749 19.4636 6.7749 20.5758 7.3369C21.688 7.8989 22.5137 9.0229 23.3563 10.1469L24.1904 11.2709C24.7819 12.0679 25.2335 12.6759 25.2335 13.5189C25.2335 14.3619 24.7499 15.0142 24.1904 15.7669L20.8538 20.2629H12.5123L17.9385 12.9569C18.3547 12.3949 18.8417 11.6933 18.4946 10.9133C18.1475 10.1401 17.2442 10.1401 16.5567 10.1401H10.0183V27.0001H3.34504V10.1401H0.00842578V9.15574" fill="#C4151C"/>
		</g>
	</symbol>

	<!-- LOGO WHITE -->
	<symbol id="logo-white" viewBox="0 0 141 63">
		<g>
			
				<path
					d="M99.6875 5.60982V7.89235H119.269C120.574 7.89235 122.533 7.89235 123.818 9.19779C125.104 10.5032 125.124 12.4614 125.124 13.747V33.3285C125.124 34.634 125.124 36.5921 123.818 37.8778C122.513 39.1832 120.555 39.1832 119.269 39.1832H109.815C108.185 39.1832 106.06 39.1832 105.265 37.3873C104.45 35.5913 105.591 33.9615 106.571 32.6402L119.309 15.6696H99.7271L91.8945 26.1131C90.5811 27.8615 89.4458 29.3766 89.4458 31.3348C89.4458 33.2929 90.502 34.7012 91.8945 36.5565L93.8526 39.1674C95.8108 41.7783 97.7689 44.3891 100.38 45.6946C102.991 47 106.076 47 110.349 47H118.814C123.719 47 131.038 47 135.943 42.0947C140.848 37.1895 140.848 30.0294 140.848 27.4185V19.5859C140.848 16.975 140.848 9.8149 135.943 4.90963C131.038 0.00436453 123.719 0.00436453 118.814 0.00436453L105.285 1.30834e-05C103.98 -0.000382503 102.35 1.31098e-05 101.052 1.30545C99.7469 2.61088 99.7469 4.2407 99.7469 5.53822"
					fill="#F0F0F3" />
				<path d="M76.3479 15.7368H95.7316L72.392 47.1464H53.0083L76.3479 15.7368Z"
					fill="#F0F0F3" />
				<path
					d="M0 21.275C0 19.9696 0 18.3398 1.30543 17.0423C2.61087 15.7447 4.24068 15.7368 5.53821 15.7368H38.3323C42.5651 15.7368 45.6902 15.7368 48.3011 17.0423C50.9119 18.3477 52.8503 20.9586 54.8283 23.5694L56.7864 26.1803C58.1749 28.0316 59.2351 29.4439 59.2351 31.402C59.2351 33.3602 58.0998 34.8753 56.7864 36.6238L48.9538 47.0672H29.3723L42.1102 30.0966C43.0872 28.7912 44.2305 27.1613 43.4156 25.3496C42.6007 23.5536 40.4803 23.5536 38.8663 23.5536H23.5176V62.7166H7.85239V23.5536H0.0197793V21.2671"
					fill="#F0F0F3" />
			
		</g>
	 </symbol>

</svg>
