<svg width="60" height="27" viewBox="0 0 60 27" fill="none" xmlns="http://www.w3.org/2000/svg">
<path d="M42.4659 2.41507V3.39772H50.8074C51.3635 3.39772 52.1977 3.39772 52.7454 3.95972C53.293 4.52172 53.3015 5.36472 53.3015 5.9182V14.3482C53.3015 14.9102 53.3015 15.7532 52.7454 16.3067C52.1893 16.8687 51.3551 16.8687 50.8074 16.8687H46.7799C46.0856 16.8687 45.1807 16.8687 44.842 16.0955C44.4948 15.3223 44.9808 14.6207 45.3981 14.0519L50.8243 6.74587H42.4828L39.1461 11.2419C38.5867 11.9946 38.103 12.6469 38.103 13.4899C38.103 14.3329 38.553 14.9391 39.1461 15.7379L39.9803 16.8619C40.8144 17.9859 41.6486 19.1099 42.7608 19.6719C43.873 20.2339 45.1874 20.2339 47.0074 20.2339H50.6136C52.7032 20.2339 55.8208 20.2339 57.9104 18.1221C60 16.0104 60 12.9279 60 11.8039V8.43187C60 7.30788 60 4.22539 57.9104 2.11364C55.8208 0.00187896 52.7032 0.00187896 50.6136 0.00187896L44.8504 5.63251e-06C44.2943 -0.00016467 43.6 5.64387e-06 43.0473 0.562005C42.4912 1.124 42.4912 1.82565 42.4912 2.38425" fill="#C4151C"/>
<path d="M32.5235 6.7749H40.7807L30.8383 20.297H22.5811L32.5235 6.7749Z" fill="#C4151C"/>
<path d="M0 9.15914C0 8.59714 0 7.8955 0.556102 7.3369C1.1122 6.77831 1.80649 6.7749 2.35922 6.7749H16.3292C18.1323 6.7749 19.4636 6.7749 20.5758 7.3369C21.688 7.8989 22.5137 9.0229 23.3563 10.1469L24.1904 11.2709C24.7819 12.0679 25.2335 12.6759 25.2335 13.5189C25.2335 14.3619 24.7499 15.0142 24.1904 15.7669L20.8538 20.2629H12.5123L17.9385 12.9569C18.3547 12.3949 18.8417 11.6933 18.4946 10.9133C18.1475 10.1401 17.2442 10.1401 16.5567 10.1401H10.0183V27.0001H3.34504V10.1401H0.00842578V9.15574" fill="#C4151C"/>
</svg>
